# AST/ASF file generated using VICON BodyLanguage
# -----------------------------------------------
:version 1.10
:name VICON
:units
  mass 1.0
  length 0.45
  angle deg
:documentation
   .ast/.asf automatically generated from VICON data using
   VICON BodyBuilder and BodyLanguage model FoxedUp or BRILLIANT.MOD
:root
   order TX TY TZ RX RY RZ
   axis XYZ
   position 0 0 0  
   orientation 0 0 0 
:bonedata
  begin
     id 1 
     name lhipjoint
     direction 0.561145 -0.797705 0.220866 
     length 2.46425 
     axis 0 0 0  XYZ
  end
  begin
     id 2 
     name lfemur
     direction 0.34202 -0.939693 0  
     length 7.95556  
     axis 0 0 20  XYZ
    dof rx ry rz
    limits (-160.0 20.0)
           (-70.0 70.0)
           (-60.0 70.0)
  end
  begin
     id 3 
     name ltibia
     direction 0.34202 -0.939693 0   
     length 7.9832   
     axis 0 0 20   XYZ
    dof rx
    limits (-10.0 170.0)
  end
  begin
     id 4 
     name lfoot
     direction 0.0723927 -0.198897 0.977343   
     length 2.23085   
     axis -90 7.62852e-016 20   XYZ
    dof rx rz
    limits (-45.0 90.0)
           (-70.0 20.0)
  end
  begin
     id 5 
     name ltoes
     direction 1.53826e-011 -4.21988e-011 1   
     length 1.12127   
     axis -90 7.62852e-016 20   XYZ
    dof rx
    limits (-90.0 20.0)
  end
  begin
     id 6 
     name rhipjoint
     direction -0.610499 -0.763299 0.21134   
     length 2.57533  
     axis 0 0 0  XYZ 
  end
  begin
     id 7 
     name rfemur
     direction -0.34202 -0.939693 0   
     length 8.65257   
     axis 0 0 -20   XYZ
    dof rx ry rz
    limits (-160.0 20.0)
           (-70.0 70.0)
           (-70.0 60.0)
  end
  begin
     id 8 
     name rtibia
     direction -0.342021 -0.939692 0   
     length 7.37807   
     axis 0 0 -20   XYZ
    dof rx
    limits (-10.0 170.0)
 end
 begin
     id 9 
     name rfoot
     direction -0.0239304 -0.0543852 0.998233   
     length 1.87018  
     axis -90 -7.62852e-016 -20   XYZ
    dof rx rz
    limits (-45.0 90.0)
           (-20.0 70.0)
  end
  begin
     id 10 
     name rtoes
     direction -1.53584e-011 -4.2242e-011 1   
     length 0.951568   
     axis -90 -7.62852e-016 -20   XYZ
    dof rx
    limits (-90.0 20.0)
  end
  begin
     id 11 
     name lowerback
     direction 0.00322089 0.999033 0.0438587   
     length 2.07568   
     axis 0 0 0   XYZ
    dof rx ry rz
    limits (-20.0 45.0)
           (-30.0 30.0)
           (-30.0 30.0)
  end
  begin
     id 12 
     name upperback
     direction -0.00321932 0.999732 -0.0229403   
     length 2.06253   
     axis 0 0 0   XYZ
    dof rx ry rz
    limits (-20.0 45.0)
           (-30.0 30.0)
           (-30.0 30.0)
  end
  begin
     id 13 
     name thorax
     direction -0.00537537 0.998955 -0.0453918   
     length 2.06975   
     axis 0 0 0   XYZ
    dof rx ry rz
    limits (-20.0 45.0)
           (-30.0 30.0)
           (-30.0 30.0)
  end
  begin
     id 14 
     name lowerneck
     direction -0.00013604 0.994111 0.108363   
     length 1.50836   
     axis 0 0 0   XYZ
    dof rx ry rz
    limits (-20.0 45.0)
           (-30.0 30.0)
           (-30.0 30.0)
  end
  begin
     id 15 
     name upperneck
     direction 0.0397262 0.983859 -0.174482   
     length 1.53037   
     axis 0 0 0   XYZ
    dof rx ry rz
    limits (-20.0 45.0)
           (-30.0 30.0)
           (-30.0 30.0)
  end
  begin
     id 16
     name head
     direction 0.0109991 0.997082 -0.0755378  
     length 1.56928  
     axis 0 0 0   XYZ
    dof rx ry rz
    limits (-20.0 45.0)
           (-30.0 30.0)
           (-30.0 30.0)
  end
  begin
     id 17 
     name lclavicle
     direction 0.964749 0.254 -0.068874  
     length 3.26503  
     axis 0 0 0   XYZ
    dof ry rz
    limits (-20.0 10.0)
           (0.0 20.0)
  end
  begin
     id 18 
     name lhumerus
     direction 1 -4.48941e-011 -2.05079e-027   
     length 5.68236   
     axis 180 -30 -90   XYZ
    dof rx ry rz
    limits (-60.0 90.0)
           (-90.0 90.0)
           (-90.0 90.0)
  end
  begin
     id 19
     name lradius
     direction 1 -4.48956e-011 6.2882e-027   
     length 3.17112   
     axis 180 -30 -90   XYZ
    dof rx
    limits (-10.0 170.0)
  end
  begin
     id 20
     name lwrist
     direction 1 -4.49014e-011 1.73219e-026   
     length 1.58556   
     axis -1.04724e-014 90 90   XYZ
    dof ry
    limits (-180.0 0.0)
 end
  begin
     id 21 
     name lhand
     direction 1 -4.49312e-011 3.46438e-026   
     length 0.632691   
     axis -2.21057e-014 90 90   XYZ
    dof rx rz
    limits (-90.0 90.0)
           (-45.0 45.0)
  end
  begin
     id 22 
     name lfingers
     direction 1 -4.48894e-011 6.92876e-026   
     length 0.510091   
     axis -4.42114e-014 90 90   XYZ
    dof rx
    limits (0.0 90.0)
  end
  begin
     id 23
     name lthumb
     direction 0.707107 -6.34705e-011 0.707107   
     length 0.732392   
     axis -90 45 2.85299e-015   XYZ
    dof rx rz
    limits (-45.0 45.0)
           (-45.0 45.0)
  end
  begin
     id 24 
     name rclavicle
     direction -0.954374 0.280496 -0.102435   
     length 3.25419  
     axis 0 0 0   XYZ 
    dof ry rz
    limits (-10.0 20.0)
           (-20.0 0.0)
  end
  begin
     id 25 
     name rhumerus
     direction -1 -4.48994e-011 -1.07204e-017  
     length 5.8712   
     axis 180 30 90   XYZ
    dof rx ry rz
    limits (-90.0 60.0)
           (-90.0 90.0)
           (-90.0 90.0)
  end
  begin
     id 26 
     name rradius
     direction -1 -4.48972e-011 5.89292e-027   
     length 3.37589   
     axis 180 30 90   XYZ
    dof rx
    limits (-10.0 170.0)
  end
  begin
     id 27 
     name rwrist
     direction -1 -4.48942e-011 1.73219e-026   
     length 1.68794   
     axis -1.04724e-014 -90 -90   XYZ
    dof ry
    limits (-180.0 0.0)
  end
  begin
     id 28
     name rhand
     direction -1 -4.48514e-011 3.46438e-026   
     length 0.603257   
     axis -2.21057e-014 -90 -90   XYZ
    dof rx rz
    limits (-90.0 90.0)
           (-45.0 45.0)
  end
  begin
     id 29
     name rfingers
     direction -1 -4.50028e-011 6.92876e-026   
     length 0.486362   
     axis -4.42114e-014 -90 -90   XYZ
    dof rx
    limits (0.0 90.0)
  end
  begin
     id 30
     name rthumb
     direction -0.707107 -6.34926e-011 0.707107   
     length 0.698321   
     axis -90 -45 -2.85299e-015   XYZ
    dof rx rz
    limits (-45.0 45.0)
           (-45.0 45.0)
  end
:hierarchy
  begin
    root lhipjoint rhipjoint lowerback
    lhipjoint lfemur
    lfemur ltibia
    ltibia lfoot
    lfoot ltoes
    rhipjoint rfemur
    rfemur rtibia
    rtibia rfoot
    rfoot rtoes
    lowerback upperback
    upperback thorax
    thorax lowerneck lclavicle rclavicle
    lowerneck upperneck
    upperneck head
    lclavicle lhumerus
    lhumerus lradius
    lradius lwrist
    lwrist lhand lthumb
    lhand lfingers
    rclavicle rhumerus
    rhumerus rradius
    rradius rwrist
    rwrist rhand rthumb
    rhand rfingers
  end

#!OML:ASF I:\Segmentation\Patient Classification 1\Patient 1\Session 1\Patient1.ASF
:FULLY-SPECIFIED
:DEGREES
4045
root -15.9897 18.0254 1.6356 -353.996 -30.5914 -0.225841
lowerback -8.42457 -0.665969 -0.920793
upperback 2.91406 -0.799681 0.179717
thorax 7.8222 -0.441553 0.586962
lowerneck -16.2103 4.78139 3.81069
upperneck 20.6449 6.88149 -5.44312
head 9.52598 2.87683 -1.6172
rclavicle -1.49033e-013 1.65488e-014
rhumerus -38.1015 -14.5579 -68.8975
rradius 35.2161
rwrist 12.8171
rhand -21.436 27.3054
rfingers 7.12502
rthumb 4.95339 -2.61668
lclavicle -1.49033e-013 1.65488e-014
lhumerus -24.9226 -8.24493 87.1268
lradius 27.7075
lwrist 9.0793
lhand -12.8599 34.9919
lfingers 7.12502
lthumb 13.2283 64.5522
rfemur -31.1781 23.9376 6.71004
rtibia 14.861
rfoot 17.8011 7.2459
rtoes -19.3408
lfemur 3.3511 -4.87273 -26.3897
ltibia 20.594
lfoot -17.3124 -5.17945
ltoes -1.02972
4046
root -16.0664 18.025 1.72036 -353.845 -29.7843 -0.28352
lowerback -8.56259 -0.645637 -0.688074
upperback 2.83419 -0.801963 0.230762
thorax 7.81367 -0.432139 0.508578
lowerneck -16.3184 4.817 3.72285
upperneck 20.7498 6.98905 -5.56558
head 9.59044 2.90241 -1.62825
rclavicle 4.48011e-014 -8.27441e-015
rhumerus -38.1702 -14.7573 -68.6236
rradius 34.87
rwrist 12.8795
rhand -21.8202 27.379
rfingers 7.12502
rthumb 4.58238 -2.55146
lclavicle 4.48011e-014 -8.27441e-015
lhumerus -25.2197 -7.27362 86.8153
lradius 27.0174
lwrist 8.40853
lhand -12.6977 35.1257
lfingers 7.12502
lthumb 13.3846 64.6757
rfemur -31.2637 23.6834 6.92891
rtibia 15.8918
rfoot 17.3956 7.54404
rtoes -21.0528
lfemur 3.46077 -5.0325 -26.1095
ltibia 20.8319
lfoot -16.962 -5.34763
ltoes -1.63934
4047
root -16.1407 18.0261 1.80514 -353.657 -29.0269 -0.380147
lowerback -8.69919 -0.589808 -0.388426
upperback 2.74418 -0.765819 0.289872
thorax 7.79216 -0.401044 0.406969
lowerneck -16.4105 4.85285 3.60779
upperneck 20.827 7.1073 -5.70245
head 9.64254 2.92978 -1.6386
rclavicle 2.18989e-014 -2.65253e-015
rhumerus -38.2436 -15.0132 -68.3008
rradius 34.4736
rwrist 13.0284
rhand -22.1498 27.4321
rfingers 7.12502
rthumb 4.26415 -2.50499
lclavicle 2.18989e-014 -2.65253e-015
lhumerus -25.5402 -6.27156 86.4801
lradius 26.4021
lwrist 7.72119
lhand -12.5434 35.2482
lfingers 7.12502
lthumb 13.5333 64.7885
rfemur -31.3448 23.3949 7.21139
rtibia 16.8735
rfoot 16.6261 7.75481
rtoes -23.1388
lfemur 3.50788 -5.34615 -25.8391
ltibia 21.145
lfoot -16.6879 -5.3033
ltoes -2.37265
4048
root -16.2122 18.0296 1.88815 -353.466 -28.3231 -0.492798
lowerback -8.78617 -0.507352 -0.0474838
upperback 2.64844 -0.69891 0.339691
thorax 7.73536 -0.352977 0.277558
lowerneck -16.4699 4.90632 3.52335
upperneck 20.8512 7.24875 -5.87416
head 9.67404 2.968 -1.66337
rclavicle -1.30577e-014 -1.06226e-014
rhumerus -38.3066 -15.3304 -67.9635
rradius 34.0388
rwrist 13.2504
rhand -22.3946 27.4423
rfingers 7.12502
rthumb 4.02776 -2.49938
lclavicle -1.30577e-014 -1.06226e-014
lhumerus -25.884 -5.30687 86.103
lradius 25.8666
lwrist 7.08529
lhand -12.4589 35.3446
lfingers 7.12502
lthumb 13.6148 64.8794
rfemur -31.3923 23.1285 7.51243
rtibia 17.7817
rfoot 15.6774 7.8775
rtoes -25.3346
lfemur 3.51415 -5.74265 -25.5837
ltibia 21.52
lfoot -16.4356 -5.11413
ltoes -3.19767
4049
root -16.2815 18.0369 1.96821 -353.29 -27.6432 -0.592779
lowerback -8.81208 -0.430121 0.279324
upperback 2.5554 -0.636244 0.374243
thorax 7.647 -0.307732 0.139805
lowerneck -16.5123 5.00661 3.53291
upperneck 20.8078 7.44446 -6.11739
head 9.68861 3.03254 -1.721
rclavicle 1.80149e-015 -1.3418e-015
rhumerus -38.319 -15.6633 -67.6666
rradius 33.5822
rwrist 13.5062
rhand -22.5427 27.375
rfingers 7.12502
rthumb 3.88475 -2.56932
lclavicle 1.80149e-015 -1.3418e-015
lhumerus -26.239 -4.38548 85.6665
lradius 25.4211
lwrist 6.5372
lhand -12.4604 35.4503
lfingers 7.12502
lthumb 13.6133 64.9852
rfemur -31.3932 22.8644 7.80509
rtibia 18.608
rfoot 14.7838 7.97818
rtoes -26.9036
lfemur 3.47924 -6.1115 -25.3295
ltibia 21.9436
lfoot -16.1187 -4.92321
ltoes -3.92652
4050
root -16.3493 18.049 2.04523 -353.111 -26.9604 -0.660289
lowerback -8.80858 -0.370848 0.559116
upperback 2.45971 -0.590701 0.396065
thorax 7.53997 -0.273238 0.012611
lowerneck -16.5344 5.15601 3.63688
upperneck 20.6844 7.70012 -6.44866
head 9.68314 3.12473 -1.81639
rclavicle 7.21216e-015 -3.08116e-015
rhumerus -38.2911 -15.9933 -67.413
rradius 33.1266
rwrist 13.7899
rhand -22.5826 27.252
rfingers 7.12502
rthumb 3.84618 -2.69304
lclavicle 7.21216e-015 -3.08116e-015
lhumerus -26.6104 -3.53245 85.1973
lradius 25.0854
lwrist 6.09195
lhand -12.503 35.6061
lfingers 7.12502
lthumb 13.5723 65.1437
rfemur -31.3748 22.561 8.07195
rtibia 19.3579
rfoot 14.0713 8.12574
rtoes -27.4421
lfemur 3.37626 -6.3762 -25.06
ltibia 22.3985
lfoot -15.669 -4.8505
ltoes -4.25331
4051
root -16.416 18.0648 2.12094 -352.935 -26.2742 -0.676826
lowerback -8.80605 -0.327623 0.773844
upperback 2.35898 -0.558705 0.418674
thorax 7.42923 -0.248821 -0.0792867
lowerneck -16.5308 5.33977 3.74805
upperneck 20.507 8.01009 -6.82948
head 9.66127 3.23914 -1.92265
rclavicle 1.16041e-014 -6.16232e-015
rhumerus -38.2589 -16.3245 -67.1493
rradius 32.6882
rwrist 14.1454
rhand -22.504 27.1453
rfingers 7.12502
rthumb 3.92212 -2.7983
lclavicle 1.16041e-014 -6.16232e-015
lhumerus -27.0175 -2.75477 84.7506
lradius 24.8655
lwrist 5.75346
lhand -12.5418 35.8061
lfingers 7.12502
lthumb 13.5349 65.3462
rfemur -31.336 22.1859 8.31076
rtibia 20.0361
rfoot 13.5281 8.35573
rtoes -27.2016
lfemur 3.21296 -6.50428 -24.7891
ltibia 22.8728
lfoot -15.0706 -4.92211
ltoes -4.07231
